<svg id="b187c093-c1a8-4ff5-9c87-d26ec9cdf6bd" data-name="Layer 1" xmlns="http://www.w3.org/2000/svg" viewBox="0 0 428 135.8"><defs><style>.b70cbb40-2310-472f-807a-a2b92e6c37e6{fill:#fff;}</style></defs><title>wordmark</title><rect width="271.59" height="67.9"/><path class="b70cbb40-2310-472f-807a-a2b92e6c37e6" d="M63.06,239.52a20.45,20.45,0,0,1-7.71-1.38,15.79,15.79,0,0,1-5.78-3.93A17.42,17.42,0,0,1,45.93,228a26.79,26.79,0,0,1,0-16.3,17.42,17.42,0,0,1,3.64-6.18,15.84,15.84,0,0,1,5.75-3.93A20.13,20.13,0,0,1,63,200.24q6,0,9.6,2.47a15.76,15.76,0,0,1,5.53,6.55l-7.2,3.93a9.93,9.93,0,0,0-2.87-3.9A7.88,7.88,0,0,0,63,207.8a8.22,8.22,0,0,0-6.36,2.4,9.28,9.28,0,0,0-2.22,6.55V223a9.31,9.31,0,0,0,2.22,6.51q2.2,2.43,6.51,2.43a8.55,8.55,0,0,0,5.34-1.52,11,11,0,0,0,3.24-4.08l7,4.15A15.65,15.65,0,0,1,73,237,17.78,17.78,0,0,1,63.06,239.52Z" transform="translate(-36 -182.01)"/><path class="b70cbb40-2310-472f-807a-a2b92e6c37e6" d="M105.26,239.52a20.22,20.22,0,0,1-7.68-1.38,16,16,0,0,1-5.75-3.93A17.55,17.55,0,0,1,88.2,228a26.59,26.59,0,0,1,0-16.3,17.55,17.55,0,0,1,3.63-6.18,16,16,0,0,1,5.75-3.93,21.95,21.95,0,0,1,15.32,0,16,16,0,0,1,5.78,3.93,17.57,17.57,0,0,1,3.64,6.18,26.79,26.79,0,0,1,0,16.3,17.57,17.57,0,0,1-3.64,6.18,16,16,0,0,1-5.78,3.93A20.26,20.26,0,0,1,105.26,239.52Zm0-7.13a8.35,8.35,0,0,0,6.33-2.44q2.32-2.43,2.32-7.16V217q0-4.72-2.32-7.17a9.46,9.46,0,0,0-12.66,0Q96.6,212.25,96.6,217v5.82q0,4.72,2.33,7.16A8.32,8.32,0,0,0,105.26,232.39Z" transform="translate(-36 -182.01)"/><path class="b70cbb40-2310-472f-807a-a2b92e6c37e6" d="M156.4,232h-.51a13.75,13.75,0,0,1-4.18,5.45,11.24,11.24,0,0,1-7,2,14.05,14.05,0,0,1-5.86-1.2,11.89,11.89,0,0,1-4.55-3.64,17.44,17.44,0,0,1-2.91-6.14,32.88,32.88,0,0,1-1-8.66q0-9.9,3.93-14.77a12.7,12.7,0,0,1,10.41-4.87,11.3,11.3,0,0,1,7,2,13.85,13.85,0,0,1,4.18,5.46h.51V184.81h9.31v53.84H156.4Zm-7.79.07a10.91,10.91,0,0,0,3-.4,7.88,7.88,0,0,0,2.48-1.16,5.52,5.52,0,0,0,1.67-2,6.05,6.05,0,0,0,.62-2.8V214a6.05,6.05,0,0,0-.62-2.8,5.43,5.43,0,0,0-1.67-2,7.67,7.67,0,0,0-2.48-1.16,10.91,10.91,0,0,0-3-.4,8,8,0,0,0-6.29,2.47,9.76,9.76,0,0,0-2.22,6.77v6a9.78,9.78,0,0,0,2.22,6.77A8,8,0,0,0,148.61,232.1Z" transform="translate(-36 -182.01)"/><path class="b70cbb40-2310-472f-807a-a2b92e6c37e6" d="M193.43,239.52a21.69,21.69,0,0,1-8-1.38,15.73,15.73,0,0,1-5.85-3.93,17,17,0,0,1-3.6-6.15,27.19,27.19,0,0,1,0-16.33,17.8,17.8,0,0,1,3.6-6.18,15.76,15.76,0,0,1,5.64-3.93,20.77,20.77,0,0,1,14.81,0,15.46,15.46,0,0,1,5.56,3.83,17.11,17.11,0,0,1,3.53,6,23.27,23.27,0,0,1,1.24,7.74v3.07H184v.94a8.84,8.84,0,0,0,2.55,6.59,9.72,9.72,0,0,0,7.13,2.51,12.08,12.08,0,0,0,6-1.42,13,13,0,0,0,4.18-3.75l5.31,5.28a16.44,16.44,0,0,1-5.93,5.06A20.59,20.59,0,0,1,193.43,239.52Zm-.66-32.45a8.4,8.4,0,0,0-6.33,2.5,9.11,9.11,0,0,0-2.4,6.6v.51h17V216a9.34,9.34,0,0,0-2.21-6.53A7.86,7.86,0,0,0,192.77,207.07Z" transform="translate(-36 -182.01)"/><path class="b70cbb40-2310-472f-807a-a2b92e6c37e6" d="M219.83,231.37h9.31v-23h-9.31v-7.27h18.63v8.95H239a15.65,15.65,0,0,1,1.56-3.38,12.17,12.17,0,0,1,2.4-2.86,10.92,10.92,0,0,1,3.35-2,12.47,12.47,0,0,1,4.47-.73h4.44v8.73h-7.93a11.26,11.26,0,0,0-6.4,1.61,5.26,5.26,0,0,0-2.4,4.67v15.25h13v7.28H219.83Z" transform="translate(-36 -182.01)"/><path class="b70cbb40-2310-472f-807a-a2b92e6c37e6" d="M279.7,239.52A27,27,0,0,1,269,237.59a17.32,17.32,0,0,1-7.06-5.2l5.46-4.95a16.37,16.37,0,0,0,5.35,3.93,16.72,16.72,0,0,0,7,1.38,11.57,11.57,0,0,0,5.6-1.16,3.81,3.81,0,0,0,2.11-3.56,2.83,2.83,0,0,0-1.42-2.77,12.73,12.73,0,0,0-3.75-1.09l-6-.94a32.91,32.91,0,0,1-4.54-1.06,13.34,13.34,0,0,1-3.93-1.93,9.08,9.08,0,0,1-2.73-3.16,9.94,9.94,0,0,1-1-4.69,10.42,10.42,0,0,1,4.4-9c2.94-2.08,7-3.12,12.12-3.12a25.16,25.16,0,0,1,9.27,1.52,16.36,16.36,0,0,1,6.29,4.3l-4.87,5.38a14.23,14.23,0,0,0-11-4.44c-4.76,0-7.13,1.48-7.13,4.44a2.87,2.87,0,0,0,1.45,2.8,12.19,12.19,0,0,0,3.78,1.13l6,.94a32.39,32.39,0,0,1,4.62,1.06,13.34,13.34,0,0,1,3.93,1.93,9,9,0,0,1,2.72,3.12,9.76,9.76,0,0,1,1,4.66,10.74,10.74,0,0,1-4.47,9.13Q287.71,239.52,279.7,239.52Z" transform="translate(-36 -182.01)"/><rect x="156.41" y="67.9" width="271.59" height="67.9"/><path class="b70cbb40-2310-472f-807a-a2b92e6c37e6" d="M219.47,307.42a20.45,20.45,0,0,1-7.71-1.38,15.79,15.79,0,0,1-5.78-3.93,17.38,17.38,0,0,1-3.64-6.19,26.75,26.75,0,0,1,0-16.29,17.33,17.33,0,0,1,3.64-6.18,15.89,15.89,0,0,1,5.74-3.93,20.22,20.22,0,0,1,7.68-1.39q6,0,9.6,2.48a15.76,15.76,0,0,1,5.53,6.55l-7.2,3.92a9.9,9.9,0,0,0-2.87-3.89,7.9,7.9,0,0,0-5.06-1.49,8.24,8.24,0,0,0-6.37,2.4,9.26,9.26,0,0,0-2.22,6.55v6.26a9.31,9.31,0,0,0,2.22,6.51q2.22,2.43,6.51,2.43a8.65,8.65,0,0,0,5.35-1.52,11.25,11.25,0,0,0,3.24-4.08l7,4.15a15.65,15.65,0,0,1-5.71,6.51A17.78,17.78,0,0,1,219.47,307.42Z" transform="translate(-36 -182.01)"/><path class="b70cbb40-2310-472f-807a-a2b92e6c37e6" d="M275.49,306.55a6.77,6.77,0,0,1-7.5-6.48h-.36a9.33,9.33,0,0,1-4,5.42,13.23,13.23,0,0,1-7.35,1.93q-5.67,0-9-3a10.56,10.56,0,0,1-3.35-8.3q0-11.34,16.66-11.35h6.62v-2.47a7.5,7.5,0,0,0-1.74-5.38q-1.76-1.81-5.68-1.82A10.6,10.6,0,0,0,254,276.5a12.73,12.73,0,0,0-3.71,3.57L245,275.56a13.84,13.84,0,0,1,5.63-5.28,20.81,20.81,0,0,1,10.08-2.15q7.42,0,11.6,3.46c2.79,2.3,4.19,5.74,4.19,10.29v17.68h4.43v7ZM259.41,301a9.36,9.36,0,0,0,5.56-1.57,4.93,4.93,0,0,0,2.22-4.25v-5h-6.4q-7.64,0-7.64,4.8v1.45a3.88,3.88,0,0,0,1.68,3.42A7.86,7.86,0,0,0,259.41,301Z" transform="translate(-36 -182.01)"/><path class="b70cbb40-2310-472f-807a-a2b92e6c37e6" d="M312.37,299.93H312a13.73,13.73,0,0,1-3.82,5.27,10.66,10.66,0,0,1-7.17,2.22,11.78,11.78,0,0,1-9-3.67q-3.46-3.67-3.46-10.52V269h9.31v23q0,8.16,7.06,8.16a10.55,10.55,0,0,0,2.73-.36,7.37,7.37,0,0,0,2.4-1.13,5.81,5.81,0,0,0,1.67-1.86,5.26,5.26,0,0,0,.62-2.62V269h9.31v37.54h-9.31Z" transform="translate(-36 -182.01)"/><path class="b70cbb40-2310-472f-807a-a2b92e6c37e6" d="M348.82,307.42a27,27,0,0,1-10.7-1.93,17.21,17.21,0,0,1-7.05-5.2l5.45-5a16.47,16.47,0,0,0,5.35,3.93,16.72,16.72,0,0,0,7,1.38,11.54,11.54,0,0,0,5.6-1.16,3.81,3.81,0,0,0,2.11-3.57,2.81,2.81,0,0,0-1.42-2.76,12.55,12.55,0,0,0-3.75-1.09l-6-.95a31.32,31.32,0,0,1-4.55-1.05,13.34,13.34,0,0,1-3.93-1.93,9.08,9.08,0,0,1-2.73-3.16,10,10,0,0,1-1-4.7,10.39,10.39,0,0,1,4.41-9q4.4-3.12,12.11-3.13a24.91,24.91,0,0,1,9.27,1.53,16.47,16.47,0,0,1,6.3,4.3l-4.88,5.38a14.36,14.36,0,0,0-4.25-3.09,14.82,14.82,0,0,0-6.73-1.35c-4.76,0-7.13,1.48-7.13,4.44a2.87,2.87,0,0,0,1.45,2.8,12.45,12.45,0,0,0,3.79,1.13l6,.94a32.39,32.39,0,0,1,4.62,1.06A13.34,13.34,0,0,1,362,287.2a9.13,9.13,0,0,1,2.73,3.12,9.73,9.73,0,0,1,1,4.66,10.75,10.75,0,0,1-4.48,9.13Q356.82,307.42,348.82,307.42Z" transform="translate(-36 -182.01)"/><path class="b70cbb40-2310-472f-807a-a2b92e6c37e6" d="M393.48,307.42a21.64,21.64,0,0,1-8-1.38,15.77,15.77,0,0,1-5.86-3.93A17.24,17.24,0,0,1,376,296a25,25,0,0,1-1.23-8.11,24.72,24.72,0,0,1,1.27-8.22,17.7,17.7,0,0,1,3.6-6.18,15.67,15.67,0,0,1,5.64-3.93,19.17,19.17,0,0,1,7.45-1.39,18.92,18.92,0,0,1,7.35,1.36,15.41,15.41,0,0,1,5.57,3.83,17.11,17.11,0,0,1,3.53,6,23.27,23.27,0,0,1,1.23,7.74v3.06H384.1v.95a8.84,8.84,0,0,0,2.54,6.58,9.71,9.71,0,0,0,7.13,2.51,12.11,12.11,0,0,0,6-1.41A13.07,13.07,0,0,0,404,295l5.31,5.28a16.53,16.53,0,0,1-5.93,5.06A20.61,20.61,0,0,1,393.48,307.42ZM392.83,275a8.36,8.36,0,0,0-6.33,2.5,9.1,9.1,0,0,0-2.4,6.59v.52h17v-.66a9.28,9.28,0,0,0-2.22-6.53A7.84,7.84,0,0,0,392.83,275Z" transform="translate(-36 -182.01)"/><path class="b70cbb40-2310-472f-807a-a2b92e6c37e6" d="M436.11,307.42a27,27,0,0,1-10.69-1.93,17.32,17.32,0,0,1-7.06-5.2l5.46-5a16.37,16.37,0,0,0,5.35,3.93,16.72,16.72,0,0,0,7,1.38,11.57,11.57,0,0,0,5.6-1.16,3.83,3.83,0,0,0,2.11-3.57,2.83,2.83,0,0,0-1.42-2.76,12.73,12.73,0,0,0-3.75-1.09l-6-.95a31.5,31.5,0,0,1-4.54-1.05,13.34,13.34,0,0,1-3.93-1.93,9.08,9.08,0,0,1-2.73-3.16,10,10,0,0,1-1-4.7,10.41,10.41,0,0,1,4.4-9c2.94-2.08,7-3.13,12.12-3.13a25,25,0,0,1,9.27,1.53,16.43,16.43,0,0,1,6.29,4.3l-4.87,5.38a14.55,14.55,0,0,0-4.26-3.09,14.79,14.79,0,0,0-6.73-1.35q-7.12,0-7.12,4.44a2.87,2.87,0,0,0,1.45,2.8,12.47,12.47,0,0,0,3.78,1.13l6,.94a32.39,32.39,0,0,1,4.62,1.06,13.34,13.34,0,0,1,3.93,1.93,9.1,9.1,0,0,1,2.72,3.12,9.73,9.73,0,0,1,1,4.66,10.74,10.74,0,0,1-4.47,9.13Q444.12,307.42,436.11,307.42Z" transform="translate(-36 -182.01)"/><rect y="67.9" width="156.41" height="67.9"/><path class="b70cbb40-2310-472f-807a-a2b92e6c37e6" d="M45.24,299.27H56.73v-23H44.51V269H56.73V262.9a12.94,12.94,0,0,1,.62-4.11,8.21,8.21,0,0,1,1.93-3.2,9,9,0,0,1,3.31-2.11,13.1,13.1,0,0,1,4.69-.77H79.94V260H66.05v9H79.94v7.27H66.05v23H78.27v7.28h-33Z" transform="translate(-36 -182.01)"/><path class="b70cbb40-2310-472f-807a-a2b92e6c37e6" d="M105.26,307.42A20.22,20.22,0,0,1,97.58,306a16,16,0,0,1-5.75-3.93,17.5,17.5,0,0,1-3.63-6.19,26.55,26.55,0,0,1,0-16.29,17.46,17.46,0,0,1,3.63-6.18,16,16,0,0,1,5.75-3.93,21.8,21.8,0,0,1,15.32,0,16,16,0,0,1,5.78,3.93,17.48,17.48,0,0,1,3.64,6.18,26.75,26.75,0,0,1,0,16.29,17.52,17.52,0,0,1-3.64,6.19A16,16,0,0,1,112.9,306,20.26,20.26,0,0,1,105.26,307.42Zm0-7.13a8.35,8.35,0,0,0,6.33-2.44q2.32-2.43,2.32-7.16v-5.82c0-3.16-.77-5.54-2.32-7.17a9.43,9.43,0,0,0-12.66,0c-1.55,1.63-2.33,4-2.33,7.17v5.82q0,4.72,2.33,7.16A8.32,8.32,0,0,0,105.26,300.29Z" transform="translate(-36 -182.01)"/><path class="b70cbb40-2310-472f-807a-a2b92e6c37e6" d="M132.54,299.27h9.31v-23h-9.31V269h18.62V278h.51a16.67,16.67,0,0,1,1.56-3.38,12.67,12.67,0,0,1,2.4-2.86,10.92,10.92,0,0,1,3.35-2,12.55,12.55,0,0,1,4.47-.73h4.44v8.73H160a11.34,11.34,0,0,0-6.4,1.6,5.29,5.29,0,0,0-2.4,4.68v15.25h13v7.28H132.54Z" transform="translate(-36 -182.01)"/></svg>