<svg xmlns="http://www.w3.org/2000/svg" data-name="Layer 1" viewBox="0 0 888 677.20707">
  <path fill="#e6e6e6" d="M887.6747 396.65913a98.57952 98.57952 0 10-189.22063 38.8094c-.0964-.10719-.196-.21147-.29192-.31907a98.666 98.666 0 0017.95428 27.78281c.02242.02466.04544.04871.0679.07338.6056.66 1.21467 1.3166 1.8378 1.9599a98.28015 98.28015 0 0069.52936 30.25355l-3.33109 180.92918h10.29127l-2.08284-119.41539 14.88675-7.83759-2.27095-4.31351-12.711 6.692-.97788-56.06376a98.57817 98.57817 0 0096.31895-98.5509zM595.08711 348.61172a115.52648 115.52648 0 10-221.74983 45.4812c-.113-.12561-.22968-.24782-.34211-.37392a115.62781 115.62781 0 0021.04083 32.559c.02627.02891.05325.05709.07957.086.70971.7735 1.42348 1.54294 2.15374 2.29683a115.1756 115.1756 0 0081.48225 35.45448l-3.90373 212.033h12.06045l-2.44091-139.94427 17.446-9.185-2.66136-5.05506-14.89615 7.84247-1.146-65.70176a115.5249 115.5249 0 00112.87725-115.49297zM263.2589 303.41824A131.46682 131.46682 0 1010.912 355.17493c-.12856-.14294-.26138-.282-.38931-.42552a131.58182 131.58182 0 0023.944 37.05149c.02989.03289.06059.065.09055.09786.80763.88023 1.61989 1.75584 2.45091 2.61375a131.0676 131.0676 0 0092.72517 40.34649L125.291 676.14828h13.72455l-2.77767-159.25375 19.85312-10.45232-3.02857-5.75256-16.95153 8.92457-1.30412-74.76729A131.465 131.465 0 00263.2589 303.41824z"/>
  <circle cx="756.68549" cy="90.97577" r="85.97574" fill="#fcea6f"/>
  <circle cx="245.55884" cy="187.61627" r="172.31169" fill="#b1d3c3"/>
  <path d="M118.32944 72.52559a172.32513 172.32513 0 00287.12222 182.36965A172.32654 172.32654 0 11118.32944 72.52559z" opacity=".2"/>
  <path fill="#3f3d56" d="M246.032 187.616h.474l8.521 488.532h-17.989l8.994-488.532z"/>
  <path fill="#3f3d56" d="M273.43758955 446.17708934l3.96954797 7.5398008-28.48368797 14.99606806-3.96954798-7.5398008zM509.11522 671.57853s.62169-13.02675 13.36641-11.51257"/>
  <circle cx="505.51414" cy="652.80329" r="6.37864" fill="#b1d3c3"/>
  <path fill="#3f3d56" d="M504.47624 663.54454h1.80054v12.60377h-1.80054zM67.08289 669.77795s.62169-13.02675 13.36641-11.51256"/>
  <circle cx="63.48181" cy="651.00275" r="6.37864" fill="#b1d3c3"/>
  <path fill="#3f3d56" d="M62.44391 661.744h1.80054v12.60377h-1.80054zM171.51415 670.67822s.6217-13.02675 13.36642-11.51256"/>
  <circle cx="167.91308" cy="651.90302" r="6.37864" fill="#b1d3c3"/>
  <path fill="#3f3d56" d="M166.87518 662.64427h1.80054v12.60377h-1.80054zM449.24329 83.29853l12.79484-10.23342c-9.93974-1.09662-14.02379 4.3243-15.69523 8.615-7.76533-3.22445-16.21882 1.00136-16.21882 1.00136l25.6001 9.29374a19.3721 19.3721 0 00-6.48089-8.67668zM643.827 187.53981l12.79483-10.23342c-9.93974-1.09662-14.02379 4.3243-15.69523 8.615-7.76533-3.22445-16.21881 1.00135-16.21881 1.00135l25.6001 9.29375a19.37224 19.37224 0 00-6.48089-8.67668zM433.95458 276.49234l12.79483-10.23342c-9.93974-1.09662-14.02379 4.3243-15.69523 8.615-7.76533-3.22445-16.21881 1.00136-16.21881 1.00136l25.6001 9.29374a19.37224 19.37224 0 00-6.48089-8.67668z"/>
  <path fill="#3f3d56" d="M683.65525 676.3068s.6217-13.02675 13.36642-11.51257M563.91941 676.3068s.62169-13.02675 13.36641-11.51257M127.2887 676.3068s.62169-13.02675 13.36641-11.51257M737.67142 676.3068s.6217-13.02675 13.36642-11.51257M712.46388 676.3068s.62169-13.02675 13.36641-11.51257M660.46505 676.3068s-.62169-13.02675-13.36641-11.51257M453.40307 676.3068s-.6217-13.02675-13.36642-11.51257M281.45159 676.3068s-.62169-13.02675-13.36641-11.51257M98.69688 676.3068s-.6217-13.02675-13.36641-11.51257M791.9044 676.3068s-.62169-13.02675-13.36641-11.51257M714.48122 677.20706s-.62169-13.02674-13.36641-11.51256"/>
  <path fill="#3f3d56" d="M0 674.60353h888v2H0z"/>
</svg>
